<?xml version="1.0" encoding="UTF-8"?>
<svg  viewBox="0 0 2000 2000" width="500" height="500" xmlns="http://www.w3.org/2000/svg">
<path transform="translate(1279,316)" d="m0 0h20l14 3 16 7 10 7 10 9 9 12 7 17 2 8 1 18v127l-3 2-49 5-98 11-191 21-66 7-196 22-77 8-41 6 4 1 387 1h622l17 1 17 4 17 7 14 9 9 7 13 13 9 13 8 16 4 11 3 13 1 10 1 22v127l-1 8-23 1h-269l-39 1-9 2-10 6-6 7-4 9-1 14 3 12 6 9 8 6 10 4 63 1h335l14 2 12 5 11 7 9 9 8 13 5 14v316l-6 16-8 12-9 9-12 7-13 4-15 2-266 1-15 2-10 5-3 3h-2l-2 4-5 11-1 5v9l3 10 6 10 6 5 9 4 5 1 29 1h141l45 1 1 1v146l-2 22-5 18-9 19-8 12-9 10-7 7-15 10-16 8-15 5-14 3-9 1h-1054l-15-1-21-4-17-8-13-9-8-7-11-14-7-12-6-18-3-16v-14l4-20 7-17 7-11 9-10 5-5 8-7 16-9 13-5 16-3h247l50-1 16-3 15-5 14-8 13-10 7-7 7-10 6-10 6-16 3-14 1-15-3-20-5-16-8-15-9-11-10-10-13-9-19-9-17-4-698-1-18-2-12-3-18-8-13-9-12-12-10-15-6-14-4-16v-30l2-12 6-15 7-12 13-15 12-10 19-10 13-4 7-1 18-1h166l250-1 14-1 14-4 16-8 13-9 10-9 11-15 6-12 4-13 2-9v-30l-3-14-5-14-6-11-11-14-11-10-14-9-19-8-13-3-314-1-3-1-1-3-1-13v-241l3-21 5-13 7-11 7-9h2v-2l13-9 14-7 24-8 30-9 153-46 49-15 51-15 56-17 107-32 47-14 65-20 38-11 46-14 67-20 71-21 26-8 56-17 19-6zm177 690-38 1-17 2-16 5-14 6-17 10-13 10-13 13-13 17-8 13-8 19-4 14-3 21v19l4 28 5 16 7 16 9 15 11 14 12 12 13 10 15 9 17 8 17 5 16 3 26 1 384-1 2-2 1-9v-273l-1-1-44-1z" fill="#65BF4D"/>
<path transform="translate(1429,1091)" d="m0 0h10l12 2 12 5 9 6 10 10 6 11 4 13v23l-3 10-6 11-9 10-8 7-8 4-9 3-5 1h-21l-13-4-11-7-10-10-7-11-5-16v-20l5-16 7-11 8-8 11-7 13-5z" fill="#65BF4D"/>
</svg>
